<svg width="45" height="44" viewBox="0 0 45 44" fill="none" xmlns="http://www.w3.org/2000/svg">
<path d="M21.1447 0H0V44H21.1447C33.8125 43.973 44.0729 34.1348 44.0729 22C44.0729 9.86522 33.8125 0.0270175 21.1447 0Z" fill="#FFCC66"/>
<path d="M15.0888 21.318C15.0953 21.4466 15.1043 21.5637 15.1159 21.686C15.3269 23.9868 16.3917 26.1259 18.1012 27.6834C19.8106 29.2409 22.0414 30.1044 24.3558 30.1044C26.6701 30.1044 28.9009 29.2409 30.6104 27.6834C32.3198 26.1259 33.3846 23.9868 33.5956 21.686C33.6072 21.5637 33.6162 21.4415 33.6227 21.318C33.6304 21.1598 33.6343 21.0015 33.6343 20.8419V20.2205C32.7499 20.7297 31.7221 20.9334 30.71 20.8001C29.6979 20.6668 28.7582 20.2039 28.0363 19.4833C27.3145 18.7627 26.8509 17.8244 26.7173 16.814C26.5838 15.8036 26.7879 14.7775 27.2978 13.8946H10.2047L7.61707 37.0525H23.196V32.363C23.0194 32.345 22.8442 32.3231 22.6702 32.2987H22.6406C22.473 32.2742 22.3068 32.246 22.1405 32.2137L22.0954 32.2048C21.9344 32.1726 21.7733 32.1366 21.6134 32.098L21.5619 32.0851C21.403 32.0465 21.2458 32.0036 21.0902 31.9564L21.04 31.9423C20.884 31.8947 20.7281 31.8458 20.5748 31.7918L20.5336 31.7776C20.3763 31.7236 20.2217 31.6657 20.067 31.6039L20.0438 31.5937C19.564 31.4019 19.0978 31.1779 18.6482 30.9234L18.6237 30.9092C18.4832 30.8282 18.3428 30.7446 18.2062 30.6519L18.1662 30.6275C18.0373 30.5426 17.8995 30.4551 17.7693 30.3701L17.7229 30.338C17.594 30.248 17.4652 30.1553 17.3427 30.0601L17.2976 30.0253C17.1687 29.9301 17.0502 29.8324 16.9291 29.7307L16.8892 29.6973C16.768 29.5944 16.6468 29.4901 16.5296 29.3821L16.5012 29.3564C16.3801 29.2444 16.2616 29.1312 16.1456 29.0141L16.1365 29.0064C16.0154 28.8855 15.8982 28.7607 15.7822 28.6346C15.67 28.506 15.5605 28.3862 15.4549 28.2589L15.4317 28.2319C15.3294 28.1092 15.2302 27.9845 15.1339 27.8575L15.1004 27.8137C15.0064 27.6851 14.9162 27.5642 14.8273 27.4368L14.7899 27.3828C14.7022 27.2541 14.6172 27.1255 14.5321 26.9968L14.4947 26.9389C14.414 26.8077 14.3354 26.6752 14.2589 26.5414L14.2268 26.4848C14.1507 26.3484 14.076 26.2107 14.0051 26.0705L13.9819 26.0229C13.9084 25.8788 13.8388 25.7334 13.7718 25.5855L13.7602 25.5585C13.6906 25.4053 13.6249 25.251 13.563 25.094C13.5012 24.9388 13.4432 24.7818 13.3891 24.6231C13.3891 24.6103 13.3787 24.5974 13.3749 24.5846C13.3233 24.4327 13.2744 24.2783 13.228 24.1239C13.228 24.1046 13.2164 24.0853 13.2112 24.0648C13.1675 23.9142 13.1262 23.7612 13.0823 23.608C13.0823 23.5849 13.0707 23.5605 13.0657 23.5373C13.0287 23.3855 12.9952 23.2324 12.9651 23.078C12.9651 23.0523 12.9548 23.0278 12.9509 23.0021C12.9213 22.8477 12.8955 22.6921 12.8723 22.5351C12.8723 22.5106 12.8646 22.4862 12.862 22.463C12.8401 22.3035 12.8195 22.1426 12.804 21.9819C12.804 21.9612 12.804 21.9407 12.804 21.9201C12.7885 21.7541 12.7757 21.5869 12.7679 21.4196C12.7679 21.4055 12.7679 21.3926 12.7679 21.3785C12.7602 21.2035 12.755 21.026 12.755 20.8484H15.0747C15.0772 21.0015 15.0772 21.1636 15.0888 21.318ZM14.7022 18.5455C14.6251 18.5957 14.5436 18.6387 14.4587 18.6741C14.3729 18.7089 14.284 18.7355 14.1932 18.7539C14.0105 18.7916 13.8219 18.7916 13.6391 18.7539C13.5483 18.7355 13.4595 18.7089 13.3736 18.6741C13.2014 18.6035 13.045 18.4994 12.9135 18.368C12.8478 18.3023 12.7886 18.2303 12.737 18.153C12.687 18.0755 12.6439 17.9937 12.6081 17.9087C12.5734 17.8229 12.5466 17.7342 12.5283 17.6436C12.4904 17.4611 12.4904 17.2729 12.5283 17.0903C12.5466 16.9997 12.5734 16.911 12.6081 16.8253C12.6439 16.7403 12.687 16.6585 12.737 16.5809C12.8396 16.4284 12.9709 16.2973 13.1236 16.1949C13.2013 16.145 13.2833 16.102 13.3685 16.0662C13.4545 16.0317 13.5433 16.0046 13.6339 15.9853C13.8169 15.9492 14.0051 15.9492 14.1881 15.9853C14.2787 16.0046 14.3676 16.0317 14.4535 16.0662C14.5387 16.102 14.6206 16.145 14.6984 16.1949C14.8511 16.2973 14.9825 16.4284 15.085 16.5809C15.135 16.6585 15.1781 16.7403 15.2139 16.8253C15.2487 16.911 15.2754 16.9997 15.2938 17.0903C15.3316 17.2729 15.3316 17.4611 15.2938 17.6436C15.2385 17.9175 15.1041 18.1694 14.9071 18.368C14.8447 18.433 14.7766 18.4924 14.7036 18.5455H14.7022Z" fill="white"/>
<path d="M7.35825 39.3685L6.84277 44.0001H21.1472C21.8391 44.0001 22.5234 43.9653 23.1987 43.9075V39.3685H7.35825Z" fill="white"/>
<path d="M15.227 17.91C15.2618 17.8243 15.2885 17.7355 15.3069 17.6449C15.3447 17.4625 15.3447 17.2742 15.3069 17.0917C15.2885 17.0011 15.2618 16.9124 15.227 16.8267C15.1912 16.7417 15.1481 16.6598 15.0981 16.5822C14.9956 16.4298 14.8642 16.2987 14.7115 16.1963C14.6337 16.1464 14.5518 16.1033 14.4666 16.0677C14.3807 16.0331 14.2918 16.006 14.2012 15.9866C14.0182 15.9506 13.83 15.9506 13.647 15.9866C13.5564 16.006 13.4676 16.0331 13.3816 16.0677C13.2964 16.1033 13.2144 16.1464 13.1367 16.1963C12.984 16.2987 12.8527 16.4298 12.7501 16.5822C12.7001 16.6598 12.657 16.7417 12.6212 16.8267C12.5865 16.9124 12.5597 17.0011 12.5414 17.0917C12.5035 17.2742 12.5035 17.4625 12.5414 17.6449C12.5597 17.7355 12.5865 17.8243 12.6212 17.91C12.657 17.9951 12.7001 18.0768 12.7501 18.1544C12.8017 18.2316 12.8609 18.3037 12.9266 18.3693C13.0581 18.5008 13.2146 18.6049 13.3868 18.6755C13.4726 18.7102 13.5614 18.7369 13.6522 18.7552C13.835 18.793 14.0236 18.793 14.2063 18.7552C14.2971 18.7369 14.386 18.7102 14.4718 18.6755C14.6436 18.604 14.7998 18.5 14.9318 18.3693C15.0625 18.2371 15.1666 18.0812 15.2386 17.91H15.227Z" fill="black"/>
<path d="M35.9539 20.8417V16.2101C35.9539 14.9818 35.4651 13.8037 34.5951 12.9351C33.7251 12.0665 32.5451 11.5785 31.3146 11.5785H15.0773V9.26277H18.5567V6.94694H13.9175C13.6099 6.94694 13.3148 7.06894 13.0974 7.28609C12.8798 7.50323 12.7576 7.79775 12.7576 8.10484V11.5785H10.4638L10.9264 7.43583C11.1042 5.81092 12.3633 4.63116 13.9187 4.63116H15.0786V2.31537H13.9187C11.1584 2.31537 8.93023 4.36355 8.62096 7.1811L4.51007 43.9996H6.84387L7.35935 39.368H23.196V43.9069C23.9803 43.8392 24.7536 43.7337 25.5156 43.5905V32.3628C28.3751 32.0724 31.0252 30.7337 32.9532 28.6056C34.8813 26.4774 35.9505 23.7112 35.9539 20.8417ZM12.7705 21.3717C12.7705 21.3859 12.7705 21.3987 12.7705 21.413C12.7783 21.5802 12.7911 21.7474 12.8066 21.9134C12.8066 21.9339 12.8066 21.9546 12.8066 21.9751C12.8221 22.136 12.8427 22.2968 12.8646 22.4563C12.8646 22.4794 12.871 22.5039 12.8749 22.5284C12.8981 22.6853 12.9239 22.841 12.9535 22.9953C12.9535 23.0211 12.9626 23.0455 12.9677 23.0712C12.9978 23.2257 13.0313 23.3787 13.0682 23.5305C13.0682 23.5537 13.0785 23.5782 13.0849 23.6014C13.1223 23.7544 13.1635 23.9075 13.2138 24.058C13.2138 24.0787 13.2255 24.098 13.2305 24.1173C13.277 24.2716 13.3259 24.426 13.3775 24.5778C13.3775 24.5907 13.3865 24.6035 13.3917 24.6164C13.4458 24.7751 13.5038 24.932 13.5656 25.0873C13.6275 25.2443 13.6945 25.3987 13.7628 25.5517L13.7744 25.5787C13.8414 25.7267 13.911 25.8721 13.9845 26.0162L14.0077 26.0638C14.0786 26.204 14.1533 26.3417 14.2293 26.478L14.2615 26.5346C14.3371 26.6685 14.4158 26.801 14.4973 26.9322L14.5347 26.9901C14.616 27.1187 14.701 27.2474 14.7925 27.3761L14.8299 27.4301C14.9188 27.5587 15.009 27.6874 15.103 27.8071L15.1365 27.8508C15.2336 27.9786 15.3328 28.1034 15.4342 28.2252L15.4575 28.2522C15.5631 28.3809 15.6726 28.5096 15.7847 28.6279C15.9008 28.7566 16.018 28.8787 16.1391 28.9997L16.1482 29.0074C16.2642 29.1245 16.3827 29.2377 16.5038 29.3496L16.5322 29.3753C16.6494 29.4834 16.7706 29.5876 16.8917 29.6905L16.9317 29.724C17.0528 29.8257 17.1752 29.9235 17.3002 30.0187L17.3453 30.0534C17.4742 30.1486 17.5966 30.2412 17.7255 30.3312L17.7719 30.3634C17.9008 30.4535 18.0296 30.541 18.1688 30.6207L18.2087 30.6452C18.3454 30.7314 18.4858 30.815 18.6263 30.9025L18.6508 30.9166C19.0996 31.1702 19.565 31.3932 20.0439 31.5844L20.067 31.5946C20.2217 31.6564 20.3763 31.7143 20.5335 31.7683L20.5748 31.7825C20.7281 31.8365 20.8841 31.8855 21.04 31.933L21.0902 31.9471C21.2457 31.9935 21.403 32.0364 21.5619 32.0758L21.6135 32.0887C21.7732 32.1273 21.9343 32.1633 22.0954 32.1955L22.1405 32.2045C22.3067 32.2367 22.473 32.265 22.6405 32.2894H22.6702C22.8441 32.3139 23.0194 32.3357 23.196 32.3537V37.0522H7.61708L10.2048 13.8943H27.2979C26.7879 14.7772 26.5839 15.8034 26.7174 16.8138C26.8508 17.8242 27.3144 18.7624 28.0363 19.483C28.7582 20.2037 29.698 20.6665 30.7101 20.7998C31.7221 20.9331 32.75 20.7294 33.6343 20.2203V20.8417C33.6343 21.0012 33.6343 21.1594 33.6227 21.3177C33.6163 21.4464 33.6072 21.5634 33.5956 21.6857C33.3846 23.9865 32.3199 26.1256 30.6104 27.6831C28.9009 29.2406 26.6701 30.1041 24.3558 30.1041C22.0415 30.1041 19.8107 29.2406 18.1012 27.6831C16.3917 26.1256 15.327 23.9865 15.1159 21.6857C15.1044 21.5634 15.0953 21.4412 15.0889 21.3177C15.0812 21.1594 15.0773 21.0012 15.0773 20.8417H12.7576C12.7576 21.0192 12.7576 21.1968 12.7705 21.3717Z" fill="black"/>
</svg>
