<svg width="86" height="32" viewBox="0 0 86 32" fill="none" xmlns="http://www.w3.org/2000/svg">
<g clip-path="url(#clip0_1517_330)">
<path d="M-0.0230713 21.7478L-0.0230713 3.80908L7.12209 3.80908C10.0472 3.80908 12.464 4.65691 14.3728 6.35264C16.2816 8.04837 17.2356 10.1892 17.2347 12.775C17.2347 15.3619 16.2808 17.5037 14.3728 19.2002C12.4649 20.8968 10.048 21.7452 7.12209 21.7452L-0.0230713 21.7478ZM4.57968 17.742H7.08688C8.64733 17.742 9.94288 17.2693 10.9735 16.3242C12.0042 15.379 12.5195 14.1829 12.5195 12.7358C12.5352 12.0713 12.4047 11.4114 12.1377 10.8025C11.8706 10.1936 11.4733 9.65042 10.9735 9.21113C9.94377 8.28037 8.63515 7.8145 7.0476 7.81361H4.57968L4.57968 17.742Z" fill="white"/>
<path d="M34.2419 19.7458C32.5429 21.4154 30.3841 22.2498 27.7659 22.2489C25.1477 22.248 22.9884 21.4136 21.2882 19.7458C19.5896 18.0726 18.7399 15.9588 18.739 13.4044C18.7381 10.85 19.5955 8.73624 21.3112 7.06308C23.0259 5.39526 25.192 4.56095 27.8092 4.56006C30.4265 4.55917 32.5786 5.38673 34.2651 7.04281C35.9513 8.69704 36.7939 10.8036 36.7939 13.3625C36.7922 15.9494 35.9415 18.0771 34.2419 19.7458ZM27.8066 18.124C29.1152 18.124 30.195 17.6789 31.0461 16.7887C31.8971 15.8985 32.3218 14.7721 32.32 13.4098C32.32 12.0475 31.8882 10.9212 31.0244 10.031C30.1607 9.14086 29.0746 8.6957 27.7659 8.6957C26.4555 8.6957 25.3689 9.13366 24.506 10.0094C23.6433 10.8852 23.2114 12.0047 23.2105 13.368C23.2105 14.7601 23.6423 15.9002 24.506 16.7887C25.3698 17.677 26.4699 18.1204 27.8066 18.1185V18.124Z" fill="white"/>
<path d="M44.4394 22.2901C41.5407 22.2901 39.2145 21.2332 37.4607 19.1194L40.4269 16.7826C41.9611 18.063 43.41 18.7026 44.7736 18.7017C45.5807 18.7017 46.2002 18.5427 46.6322 18.2247C47.0642 17.9066 47.2802 17.5115 47.2802 17.0393C47.2802 16.6785 47.1042 16.3636 46.7567 16.1028C46.4447 15.8599 46.0918 15.6733 45.7158 15.5513L44.0456 15.0486L41.9967 14.4309C41.3771 14.2298 40.7807 13.9625 40.218 13.6336C39.5851 13.2965 39.0669 12.779 38.7291 12.1469C38.4074 11.536 38.2474 10.7849 38.2483 9.89383C38.2483 8.2261 38.8403 6.90521 40.0243 5.93116C41.2083 4.95721 42.706 4.47196 44.5167 4.47561C47.3309 4.47561 49.5185 5.50503 51.0776 7.56387L48.1576 9.93712C47.1265 8.71445 45.9425 8.10263 44.6056 8.10174C43.9078 8.10174 43.3665 8.26254 42.9807 8.58423C42.8011 8.71827 42.6545 8.89205 42.5531 9.09214C42.4518 9.29214 42.3976 9.51285 42.3967 9.73712C42.3985 9.92298 42.4456 10.1056 42.5318 10.27C42.6189 10.4345 42.7434 10.5761 42.8962 10.6832C43.1976 10.9313 43.5469 11.1153 43.922 11.2238L45.586 11.6793L47.1478 12.109C47.6483 12.2579 48.1389 12.4385 48.6171 12.6497C49.2305 12.9132 49.6918 13.2024 49.9994 13.5214C50.3469 13.901 50.6296 14.3353 50.8358 14.8066C51.0954 15.3864 51.2251 16.0163 51.2136 16.6515C51.2136 18.3201 50.6002 19.6758 49.3754 20.7183C48.1496 21.7608 46.5042 22.2847 44.4394 22.2901Z" fill="white"/>
<path d="M64.7051 16.9083L67.4642 19.8289C65.93 21.4427 64.1327 22.2491 62.0731 22.2482C59.8171 22.2482 58.0615 21.6224 56.8073 20.371C55.5522 19.1194 54.9255 17.4228 54.9264 15.2811V8.81543H52.0011V5.06085H54.9264V0.888672L59.394 0.888672V5.06085L66.2047 5.06085V8.81543H59.394V15.2811C59.394 17.1165 60.3415 18.0342 62.2366 18.0342C63.13 18.0342 63.9522 17.6589 64.7051 16.9083Z" fill="white"/>
<path d="M80.7966 5.06055H85.2642V22.206C85.2642 25.0982 84.4846 27.358 82.9237 28.9853C81.3637 30.6125 79.1904 31.4261 76.4055 31.4261C72.9219 31.4261 70.2748 30.216 68.4659 27.7959L71.6837 24.9185C72.857 26.4205 74.4446 27.171 76.4473 27.1701C77.8117 27.1701 78.8775 26.7323 79.6437 25.8565C80.4099 24.9806 80.793 23.7643 80.793 22.2073V19.8705C79.2882 21.4564 77.4082 22.2488 75.1522 22.2479C73.1744 22.2479 71.5797 21.5874 70.3673 20.2665C69.1557 18.9456 68.5495 17.2143 68.5495 15.0726V5.06055H72.9788V14.0711C72.9788 15.2677 73.2713 16.248 73.8562 17.0121C74.441 17.7761 75.2624 18.1586 76.321 18.1595C76.913 18.1666 77.4988 18.05 78.0428 17.8172C78.5859 17.5844 79.0748 17.2406 79.4775 16.808C80.3539 15.9069 80.793 14.7735 80.793 13.4076L80.7966 5.06055Z" fill="white"/>
</g>
<defs>
<clipPath id="clip0_1517_330">
<rect width="85.3333" height="32" fill="white"/>
</clipPath>
</defs>
</svg>
