<svg width="40" height="40" viewBox="0 0 40 40" fill="none" xmlns="http://www.w3.org/2000/svg">
<path d="M23.3002 21.8339C21.9557 19.3894 21.539 18.7783 20.0002 18.7783C18.4614 18.7783 17.8784 19.7011 16.5339 22.1358C15.3825 24.2173 13.0554 24.3908 12.4748 26.1582C12.3563 26.4821 12.2976 26.9857 12.3001 27.334C12.3001 28.7713 13.262 29.7785 14.5001 29.7785C16.0389 29.7785 18.1668 28.5562 20.0002 28.5562C21.8335 28.5562 23.9614 29.7785 25.5002 29.7785C26.7384 29.7785 27.7003 28.7726 27.7003 27.334C27.7003 26.9857 27.6404 26.4821 27.5218 26.1582C26.9413 24.3847 24.4516 23.9154 23.3002 21.8339Z" fill="white"/>
<path d="M30.0078 15.2118C29.8508 15.1455 29.6821 15.1114 29.5116 15.1116H29.4933C28.5949 15.1263 27.5866 16.0283 27.0574 17.3923C26.423 19.024 26.7151 20.6924 27.7149 21.1226C27.8726 21.1898 28.0413 21.2228 28.2112 21.2228C29.1144 21.2228 30.1362 20.3159 30.6691 18.9421C31.2998 17.3104 31.0015 15.6421 30.0078 15.2118Z" fill="white"/>
<path d="M16.9128 16.3338C16.98 16.3338 17.046 16.3338 17.112 16.3204C18.2658 16.164 18.9857 14.6753 18.7254 12.9935C18.4773 11.4082 17.4457 10.2227 16.364 10.2227C16.2968 10.2227 16.2308 10.2227 16.1648 10.2361C15.011 10.3925 14.2911 11.8812 14.5514 13.563C14.8008 15.1434 15.8323 16.3338 16.914 16.3338H16.9128Z" fill="white"/>
<path d="M25.4465 13.563C25.708 11.8812 24.9881 10.3926 23.8331 10.2361C23.7675 10.227 23.7013 10.2225 23.6351 10.2227C22.5534 10.2227 21.5231 11.4082 21.2762 12.9935C21.0146 14.6753 21.7345 16.164 22.8895 16.3204C22.9555 16.329 23.0215 16.3339 23.0875 16.3339C24.1692 16.3339 25.202 15.1434 25.4465 13.563Z" fill="white"/>
<path d="M12.2879 21.1226C13.2852 20.6924 13.5761 19.0216 12.943 17.3923C12.4101 16.0185 11.3895 15.1116 10.4875 15.1116C10.3164 15.1116 10.1489 15.1446 9.99004 15.2118C8.99269 15.6421 8.7018 17.3129 9.33492 18.9421C9.86782 20.3159 10.8884 21.2228 11.7904 21.2228C11.9615 21.2228 12.129 21.1898 12.2879 21.1226Z" fill="white"/>
</svg>
