<svg width="52" height="52" viewBox="0 0 52 52" fill="none" xmlns="http://www.w3.org/2000/svg">
<path d="M30.3333 32.5007L38.1052 24.731C38.6091 25.2351 39.2296 25.6071 39.9117 25.8141C40.5938 26.021 41.3164 26.0565 42.0154 25.9174C42.7145 25.7783 43.3685 25.4689 43.9194 25.0166C44.4703 24.5643 44.9011 23.9831 45.1737 23.3246C45.4463 22.666 45.5522 21.9503 45.4821 21.241C45.4119 20.5316 45.1679 19.8506 44.7716 19.2581C44.3753 18.6657 43.839 18.1801 43.2102 17.8445C42.5813 17.5089 41.8794 17.3335 41.1667 17.334C41.1665 16.6215 40.9905 15.9199 40.6544 15.2915C40.3184 14.6632 39.8325 14.1274 39.2399 13.7316C38.6473 13.3359 37.9662 13.0924 37.2571 13.0227C36.5479 12.953 35.8325 13.0593 35.1742 13.3322C34.5159 13.605 33.935 14.036 33.4831 14.5869C33.0311 15.1379 32.722 15.7918 32.5831 16.4907C32.4442 17.1896 32.4798 17.912 32.6868 18.5939C32.8938 19.2758 33.2657 19.8961 33.7697 20.3999L21.6667 32.5007L13.8949 24.731C13.3909 25.2351 12.7704 25.6071 12.0884 25.8141C11.4063 26.021 10.6837 26.0565 9.98461 25.9174C9.28554 25.7783 8.63157 25.4689 8.08067 25.0166C7.52976 24.5643 7.09892 23.9831 6.82634 23.3246C6.55375 22.666 6.44784 21.9503 6.51798 21.241C6.58812 20.5316 6.83215 19.8506 7.22845 19.2581C7.62474 18.6657 8.16106 18.1801 8.78988 17.8445C9.4187 17.5089 10.1206 17.3335 10.8334 17.334C10.8336 16.6215 11.0095 15.9199 11.3456 15.2915C11.6817 14.6632 12.1675 14.1274 12.7601 13.7316C13.3527 13.3359 14.0338 13.0924 14.743 13.0227C15.4522 12.953 16.1676 13.0593 16.8259 13.3322C17.4842 13.605 18.065 14.036 18.517 14.5869C18.9689 15.1379 19.278 15.7918 19.4169 16.4907C19.5558 17.1896 19.5202 17.912 19.3132 18.5939C19.1063 19.2758 18.7343 19.8961 18.2304 20.3999L26 28.1674M6.49999 43.334H45.5C45.1208 39.7135 45.4003 36.0865 41.1667 32.5007H10.8333C7.94516 34.6674 6.49999 38.2792 6.49999 43.334Z" stroke="#B88A30" stroke-width="2.5" stroke-linecap="round" stroke-linejoin="round"/>
</svg>
