<svg width="52" height="52" viewBox="0 0 52 52" fill="none" xmlns="http://www.w3.org/2000/svg">
<path d="M21.1683 43.8314C21.3789 44.9418 21.8965 45.971 22.6625 46.8021C23.4284 47.6331 24.4121 48.2328 25.5017 48.5331C26.2585 48.7433 27.0495 48.8017 27.829 48.7051C28.6086 48.6084 29.3613 48.3586 30.0439 47.97C30.7266 47.5813 31.3256 47.0616 31.8066 46.4405C32.2876 45.8195 32.6411 45.1095 32.8467 44.3514C33.0521 43.5803 33.1028 42.7761 32.9959 41.9853C32.8889 41.1944 32.6265 40.4326 32.2236 39.7437C31.8207 39.0548 31.2855 38.4525 30.6487 37.9716C30.0119 37.4906 29.2861 37.1405 28.5133 36.9414C28.015 36.8114 29.2717 32.8681 30.4633 28.4264C31.655 23.9847 33.1717 17.7881 33.67 17.9181C34.4366 18.1546 35.2432 18.2333 36.0411 18.1494C36.839 18.0655 37.6116 17.8207 38.3123 17.4299C39.013 17.0391 39.6271 16.5103 40.1177 15.8755C40.6083 15.2406 40.9651 14.513 41.1667 13.7364C41.3688 12.9667 41.4171 12.1647 41.3086 11.3763C41.2 10.5879 40.9369 9.82876 40.5343 9.14232C40.1317 8.45587 39.5975 7.85568 38.9624 7.37617C38.3273 6.89666 37.6038 6.54728 36.8333 6.34805C35.7601 6.04867 34.6239 6.06083 33.5573 6.3831C32.4907 6.70537 31.5379 7.32446 30.81 8.16806C30.5939 7.12424 30.1027 6.15717 29.3873 5.36695C28.6719 4.57674 27.7583 3.99211 26.741 3.6736C25.7238 3.35508 24.6399 3.31427 23.6016 3.55537C22.5633 3.79647 21.6083 4.31073 20.8354 5.04489C20.0626 5.77906 19.5001 6.70646 19.2061 7.73106C18.9121 8.75566 18.8973 9.84022 19.1633 10.8725C19.4293 11.9047 19.9663 12.8471 20.7188 13.602C21.4713 14.357 22.412 14.8971 23.4433 15.1664C23.9417 15.2964 22.685 19.2397 21.4933 23.6814C20.3017 28.1231 18.785 34.3197 18.2867 34.1897C17.5298 33.9765 16.7381 33.9158 15.9576 34.0111C15.177 34.1064 14.4232 34.3558 13.7399 34.7449C13.0565 35.1339 12.4573 35.6549 11.9769 36.2774C11.4965 36.9 11.1447 37.6117 10.9417 38.3714C10.5617 39.896 10.7902 41.5086 11.5789 42.8676C12.3676 44.2265 13.6544 45.225 15.1667 45.6514C16.2368 45.9464 17.3686 45.9319 18.4308 45.6098C19.4931 45.2877 20.4423 44.671 21.1683 43.8314Z" stroke="#B88A30" stroke-width="2.5" stroke-linecap="round" stroke-linejoin="round"/>
</svg>
