<svg width="52" height="52" viewBox="0 0 52 52" fill="none" xmlns="http://www.w3.org/2000/svg">
<path d="M32.5 6.5C34.2239 6.5 35.8772 7.18482 37.0962 8.40381C38.3152 9.62279 39 11.2761 39 13C40.0689 12.9998 41.1214 13.2632 42.0642 13.7668C43.007 14.2705 43.811 14.9989 44.4051 15.8875C44.9992 16.7761 45.3649 17.7975 45.47 18.8613C45.575 19.925 45.4161 20.9982 45.0073 21.9858C44.5985 22.9735 43.9525 23.8451 43.1264 24.5234C42.3003 25.2018 41.3197 25.6659 40.2714 25.8747C39.2231 26.0836 38.1395 26.0307 37.1165 25.7207C36.0935 25.4107 35.1628 24.8533 34.4067 24.0977L24.0977 34.4067C24.8417 35.1513 25.3937 36.0655 25.7064 37.0706C26.019 38.0758 26.0828 39.1418 25.8923 40.1771C25.7019 41.2123 25.2628 42.1858 24.613 43.0139C23.9631 43.842 23.1218 44.4998 22.1615 44.9309C21.2012 45.362 20.1506 45.5534 19.0999 45.4887C18.0493 45.4239 17.0301 45.105 16.1299 44.5593C15.2298 44.0136 14.4757 43.2575 13.9323 42.3559C13.389 41.4544 13.0728 40.4343 13.0109 39.3835V39H12.6295C11.5783 38.9384 10.5578 38.6224 9.65585 38.079C8.75386 37.5357 7.99737 36.7814 7.45147 35.8809C6.90557 34.9805 6.5866 33.9609 6.52201 32.9099C6.45741 31.8589 6.64913 30.8079 7.08065 29.8474C7.51218 28.8869 8.1706 28.0456 8.99927 27.3959C9.82793 26.7462 10.802 26.3075 11.8378 26.1177C12.8735 25.9278 13.9399 25.9924 14.9451 26.3059C15.9503 26.6195 16.8644 27.1725 17.6085 27.9175L27.9175 17.6085C27.0082 16.6997 26.3887 15.5417 26.1375 14.2808C25.8863 13.0199 26.0147 11.7129 26.5064 10.525C26.998 9.33709 27.8309 8.32167 28.8997 7.60715C29.9685 6.89263 31.2252 6.51111 32.5109 6.51083L32.5 6.5Z" stroke="#B88A30" stroke-width="2.5" stroke-linecap="round" stroke-linejoin="round"/>
</svg>
