<svg width="52" height="52" viewBox="0 0 52 52" fill="none" xmlns="http://www.w3.org/2000/svg">
<path d="M22.9447 32.9866C22.9447 31.5076 24.1318 31.7606 25.6108 31.7606H26.3893C27.8683 31.7606 29.0554 31.5076 29.0554 32.9866" stroke="#B88A30" stroke-width="2.5" stroke-linecap="round" stroke-linejoin="round"/>
<path d="M26 31.7598V38.318" stroke="#B88A30" stroke-width="2.5" stroke-linecap="round" stroke-linejoin="round"/>
<path d="M18.9358 24.1895V26.0771" stroke="#B88A30" stroke-width="2.5" stroke-linecap="round" stroke-linejoin="round"/>
<path d="M33.0642 24.1895V26.0771" stroke="#B88A30" stroke-width="2.5" stroke-linecap="round" stroke-linejoin="round"/>
<path d="M42.6974 29.834L33.6676 32.8699" stroke="#B88A30" stroke-width="2.5" stroke-linecap="round" stroke-linejoin="round"/>
<path d="M41.2768 35.7695L33.6676 37.4821" stroke="#B88A30" stroke-width="2.5" stroke-linecap="round" stroke-linejoin="round"/>
<path d="M9.28326 29.834L18.3325 32.8699" stroke="#B88A30" stroke-width="2.5" stroke-linecap="round" stroke-linejoin="round"/>
<path d="M10.7233 35.7695L18.3325 37.4821" stroke="#B88A30" stroke-width="2.5" stroke-linecap="round" stroke-linejoin="round"/>
<path d="M17.7876 12.0263C14.0122 9.74936 8.17402 6.71349 6.24741 8.48442C3.65913 10.8781 9.26382 21.1923 10.4315 23.0994C10.7758 20.8289 11.6127 18.6612 12.8835 16.7483C14.1542 14.8355 15.8281 13.2238 17.7876 12.0263Z" stroke="#B88A30" stroke-width="2.5" stroke-linecap="round" stroke-linejoin="round"/>
<path d="M41.666 23.0994C42.7363 21.1534 48.341 10.8781 45.7527 8.48442C43.8067 6.71349 37.9684 9.74936 34.2125 12.0263C36.1902 13.2133 37.8829 14.8204 39.1708 16.7339C40.4588 18.6473 41.3106 20.8204 41.666 23.0994Z" stroke="#B88A30" stroke-width="2.5" stroke-linecap="round" stroke-linejoin="round"/>
<path d="M31.8382 44.0398H20.1618C16.8535 44.0398 13.9149 41.3931 11.8715 37.9291C9.45839 33.784 8.77726 31.8379 9.653 27.0116L10.1979 24.0536C10.5801 20.129 12.4105 16.4876 15.3321 13.8394C18.2537 11.1913 22.0569 9.72642 26 9.73048C29.9431 9.72642 33.7464 11.1913 36.668 13.8394C39.5895 16.4876 41.4199 20.129 41.8021 24.0536L42.347 27.0311C43.2228 31.8379 42.5417 33.7256 40.0701 37.9486C38.0268 41.3931 35.0882 44.0398 31.8382 44.0398Z" stroke="#B88A30" stroke-width="2.5" stroke-linecap="round" stroke-linejoin="round"/>
</svg>
