<svg width="52" height="52" viewBox="0 0 52 52" fill="none" xmlns="http://www.w3.org/2000/svg">
<path d="M48.6634 37.2008L45.9117 22.7058C45.5287 20.6792 44.5236 18.8223 43.0364 17.3933C41.5492 15.9643 39.6537 15.0343 37.6134 14.7324C39.1568 16.8005 40.108 19.2498 40.3651 21.8174L41.3617 31.6758C41.5068 33.0374 41.3721 34.4143 40.966 35.7221C40.5599 37.0298 39.8909 38.2408 39.0001 39.2808C39.2874 40.5708 40.0754 41.6939 41.1908 42.403C42.3062 43.112 43.6575 43.3489 44.9476 43.0616C46.2376 42.7743 47.3607 41.9863 48.0698 40.8709C48.7788 39.7555 49.0157 38.4042 48.7284 37.1141L48.6634 37.2008Z" stroke="#B88A30" stroke-width="2.5" stroke-linecap="round" stroke-linejoin="round"/>
<path d="M10.6384 31.6758L11.6351 21.8174C11.8921 19.2498 12.8434 16.8005 14.3867 14.7324C12.3465 15.0343 10.4509 15.9643 8.96372 17.3933C7.4765 18.8223 6.47148 20.6792 6.08839 22.7058L3.33673 37.2008C3.04941 38.4908 3.28633 39.8422 3.99538 40.9576C4.70442 42.0729 5.8275 42.8609 7.11756 43.1483C8.40762 43.4356 9.75898 43.1987 10.8743 42.4896C11.9897 41.7806 12.7777 40.6575 13.0651 39.3674C12.1515 38.3223 11.4642 37.0994 11.0466 35.7756C10.6289 34.4518 10.49 33.0559 10.6384 31.6758Z" stroke="#B88A30" stroke-width="2.5" stroke-linecap="round" stroke-linejoin="round"/>
<path d="M31.2433 42.7701H20.7566C19.3417 42.7767 17.9411 42.4865 16.6453 41.9181C15.3495 41.3498 14.1873 40.516 13.2338 39.4706C12.2803 38.4252 11.5566 37.1914 11.1095 35.8489C10.6625 34.5065 10.5019 33.0851 10.6383 31.6768L11.635 21.8184C11.9803 18.2518 13.6443 14.9424 16.3012 12.5379C18.9581 10.1335 22.4166 8.80715 26 8.81843C29.5833 8.80715 33.0418 10.1335 35.6987 12.5379C38.3556 14.9424 40.0196 18.2518 40.365 21.8184L41.3616 31.6768C41.498 33.0851 41.3375 34.5065 40.8904 35.8489C40.4433 37.1914 39.7196 38.4252 38.7661 39.4706C37.8126 40.516 36.6504 41.3498 35.3546 41.9181C34.0588 42.4865 32.6582 42.7767 31.2433 42.7701Z" stroke="#B88A30" stroke-width="2.5" stroke-linecap="round" stroke-linejoin="round"/>
<path d="M26.0001 34.9701L22.9017 31.4818C22.9017 30.7635 23.1871 30.0746 23.695 29.5667C24.2029 29.0588 24.8918 28.7734 25.6101 28.7734H26.3901C27.1084 28.7734 27.7972 29.0588 28.3052 29.5667C28.8131 30.0746 29.0984 30.7635 29.0984 31.4818L26.0001 34.9701Z" stroke="#B88A30" stroke-width="2.5" stroke-linecap="round" stroke-linejoin="round"/>
<path d="M26 34.9707V42.7707" stroke="#B88A30" stroke-width="2.5" stroke-linecap="round" stroke-linejoin="round"/>
<path d="M19.175 21.9707V23.7907" stroke="#B88A30" stroke-width="2.5" stroke-linecap="round" stroke-linejoin="round"/>
<path d="M32.8251 21.9707V23.7907" stroke="#B88A30" stroke-width="2.5" stroke-linecap="round" stroke-linejoin="round"/>
</svg>
