<svg width="52" height="52" viewBox="0 0 52 52" fill="none" xmlns="http://www.w3.org/2000/svg">
<path d="M10.075 23.834C10.1216 23.427 10.3162 23.0515 10.6219 22.7788C10.9276 22.5062 11.3228 22.3555 11.7325 22.3555C12.1421 22.3555 12.5373 22.5062 12.843 22.7788C13.1487 23.0515 13.3433 23.427 13.39 23.834" stroke="#B88A30" stroke-width="2.5" stroke-linecap="round" stroke-linejoin="round"/>
<path d="M29.315 19.5007C27.2772 17.5512 24.769 16.1632 22.0349 15.4721C19.3008 14.781 16.4343 14.8104 13.715 15.5574C15.3071 16.7884 16.596 18.3677 17.4828 20.1743C18.3696 21.9809 18.8307 23.9666 18.8307 25.9791C18.8307 27.9915 18.3696 29.9773 17.4828 31.7838C16.596 33.5904 15.3071 35.1698 13.715 36.4007C16.4306 37.1533 19.2949 37.1896 22.0288 36.5061C24.7627 35.8226 27.2729 34.4427 29.315 32.5007L36.01 26.0007L29.315 19.5007Z" stroke="#B88A30" stroke-width="2.5" stroke-linecap="round" stroke-linejoin="round"/>
<path d="M18.8283 25.9998C18.8222 23.9886 18.3586 22.0052 17.4727 20.1997C16.5868 18.3941 15.3018 16.8137 13.715 15.5781C11.0924 16.2674 8.69039 17.6177 6.73833 19.4998L4.70166 21.9698C3.768 23.0969 3.25708 24.5146 3.25708 25.9781C3.25708 27.4417 3.768 28.8594 4.70166 29.9865L6.73833 32.4998C8.68797 34.3898 11.0902 35.7476 13.715 36.4431C15.3047 35.2053 16.5914 33.6214 17.4775 31.8118C18.3635 30.0023 18.8254 28.0146 18.8283 25.9998Z" stroke="#B88A30" stroke-width="2.5" stroke-linecap="round" stroke-linejoin="round"/>
<path d="M36.01 26L37.7 31.005C38.415 33.1717 38.6533 34.4067 41.015 35.035L48.295 36.9633C49.465 33.02 48.49 29.315 44.1133 28.145L36.01 26Z" stroke="#B88A30" stroke-width="2.5" stroke-linecap="round" stroke-linejoin="round"/>
<path d="M36.01 26.0004L37.7 20.9954C38.415 18.8288 38.6533 17.5938 41.015 16.9654L48.295 15.0371C49.465 18.9804 48.49 22.6854 44.1133 23.8554L36.01 26.0004Z" stroke="#B88A30" stroke-width="2.5" stroke-linecap="round" stroke-linejoin="round"/>
</svg>
