<svg width="52" height="52" viewBox="0 0 52 52" fill="none" xmlns="http://www.w3.org/2000/svg">
<path d="M11.9167 6.50001C13.1561 6.49987 14.3766 6.8035 15.4714 7.38432C16.5663 7.96513 17.5021 8.80544 18.1969 9.83169C18.8918 10.8579 19.3245 12.0389 19.4573 13.2711C19.59 14.5033 19.4187 15.7493 18.9584 16.9C16.8799 17.9909 15.0823 19.5482 13.7064 21.45C12.6642 21.7046 11.5799 21.7352 10.5251 21.5398C9.47028 21.3443 8.46892 20.9273 7.58717 20.3162C6.70542 19.7052 5.96336 18.914 5.41 17.9949C4.85664 17.0759 4.50458 16.0499 4.37706 14.9847C4.24955 13.9195 4.34949 12.8394 4.67028 11.8157C4.99108 10.792 5.52542 9.84802 6.23802 9.0461C6.95062 8.24418 7.82525 7.60258 8.80415 7.16369C9.78305 6.72479 10.8439 6.49858 11.9167 6.50001Z" stroke="#B88A30" stroke-width="2.5" stroke-linecap="round" stroke-linejoin="round"/>
<path d="M40.0833 6.5C41.1546 6.50109 42.2135 6.72915 43.1902 7.16913C44.1669 7.60912 45.0394 8.25106 45.75 9.05266C46.4607 9.85427 46.9935 10.7973 47.3132 11.8198C47.633 12.8422 47.7325 13.9208 47.6052 14.9844C47.4779 16.0481 47.1267 17.0727 46.5747 17.9908C46.0227 18.9089 45.2824 19.6997 44.4027 20.3109C43.523 20.9222 42.5237 21.3402 41.4707 21.5372C40.4177 21.7343 39.3349 21.7061 38.2937 21.4543C36.9187 19.55 35.121 17.9903 33.0417 16.8978C32.5818 15.7472 32.4109 14.5015 32.5438 13.2696C32.6768 12.0376 33.1096 10.857 33.8044 9.83108C34.4992 8.80512 35.4348 7.96504 36.5294 7.38434C37.624 6.80364 38.8442 6.50001 40.0833 6.5Z" stroke="#B88A30" stroke-width="2.5" stroke-linecap="round" stroke-linejoin="round"/>
<path d="M10.8334 30.3333C10.8334 32.3251 11.2257 34.2973 11.9878 36.1374C12.75 37.9775 13.8672 39.6494 15.2756 41.0578C16.6839 42.4662 18.3559 43.5833 20.196 44.3455C22.0361 45.1077 24.0083 45.5 26 45.5C27.9917 45.5 29.964 45.1077 31.8041 44.3455C33.6442 43.5833 35.3161 42.4662 36.7245 41.0578C38.1328 39.6494 39.25 37.9775 40.0122 36.1374C40.7744 34.2973 41.1667 32.3251 41.1667 30.3333C41.1667 28.3416 40.7744 26.3694 40.0122 24.5293C39.25 22.6892 38.1328 21.0172 36.7245 19.6089C35.3161 18.2005 33.6442 17.0834 31.8041 16.3212C29.964 15.559 27.9917 15.1667 26 15.1667C24.0083 15.1667 22.0361 15.559 20.196 16.3212C18.3559 17.0834 16.6839 18.2005 15.2756 19.6089C13.8672 21.0172 12.75 22.6892 11.9878 24.5293C11.2257 26.3694 10.8334 28.3416 10.8334 30.3333Z" stroke="#B88A30" stroke-width="2.5" stroke-linecap="round" stroke-linejoin="round"/>
</svg>
