<svg width="52" height="52" viewBox="0 0 52 52" fill="none" xmlns="http://www.w3.org/2000/svg">
<path d="M8.66663 43.3327L30.3333 21.666M30.3333 21.666V10.8327M30.3333 21.666H41.1666M30.3333 10.8327L21.6666 19.4994M30.3333 10.8327C31.7113 9.46118 33.6115 8.66602 35.7131 8.66602C36.7134 8.66545 37.7041 8.86194 38.6284 9.24429C39.5528 9.62663 40.3928 10.1873 41.1004 10.8943C41.808 11.6014 42.3694 12.4409 42.7525 13.3649C43.1357 14.2889 43.333 15.2794 43.3333 16.2797C43.3333 18.3835 42.549 20.288 41.1666 21.666M41.1666 21.666L32.5 30.3327M21.6666 19.4994V30.3327H32.5M21.6666 19.4994L13 28.166V38.9994H23.8333L32.5 30.3327" stroke="#B88A30" stroke-width="2.5" stroke-linecap="round" stroke-linejoin="round"/>
</svg>
