<svg width="52" height="52" viewBox="0 0 52 52" fill="none" xmlns="http://www.w3.org/2000/svg">
<path d="M31.8501 29.2494C29.4668 24.916 28.7279 23.8327 26.0001 23.8327C23.2723 23.8327 22.2388 25.4685 19.8554 29.7845C17.8144 33.4744 13.6891 33.782 12.6599 36.915C12.4498 37.4892 12.3458 38.3819 12.3501 38.9994C12.3501 41.5474 14.0553 43.3327 16.2501 43.3327C18.9779 43.3327 22.7501 41.166 26.0001 41.166C29.2501 41.166 33.0223 43.3327 35.7501 43.3327C37.9449 43.3327 39.6501 41.5495 39.6501 38.9994C39.6501 38.3819 39.5439 37.4892 39.3338 36.915C38.3046 33.7712 33.8911 32.9392 31.8501 29.2494Z" stroke="#B88A30" stroke-width="2.5" stroke-linecap="round" stroke-linejoin="round"/>
<path d="M43.7408 17.5104C43.4624 17.3927 43.1633 17.3323 42.8611 17.3327H42.8286C41.2361 17.3587 39.4486 18.9577 38.5104 21.3757C37.3859 24.2682 37.9038 27.2257 39.6761 27.9884C39.9556 28.1075 40.2546 28.166 40.5558 28.166C42.1569 28.166 43.9683 26.5584 44.9129 24.123C46.0309 21.2305 45.5023 18.273 43.7408 17.5104Z" stroke="#B88A30" stroke-width="2.5" stroke-linecap="round" stroke-linejoin="round"/>
<path d="M20.5271 19.4994C20.6463 19.4994 20.7633 19.4994 20.8803 19.4755C22.9256 19.1982 24.2018 16.5592 23.7403 13.5779C23.3004 10.7677 21.4718 8.66602 19.5543 8.66602C19.4351 8.66602 19.3181 8.66602 19.2011 8.68985C17.1558 8.96718 15.8796 11.6062 16.3411 14.5875C16.7831 17.389 18.6118 19.4994 20.5293 19.4994H20.5271Z" stroke="#B88A30" stroke-width="2.5" stroke-linecap="round" stroke-linejoin="round"/>
<path d="M35.6548 14.5875C36.1184 11.6062 34.8423 8.96719 32.7948 8.68985C32.6785 8.67375 32.5612 8.66579 32.4438 8.66602C30.5263 8.66602 28.6998 10.7677 28.2621 13.5779C27.7984 16.5592 29.0746 19.1982 31.1221 19.4755C31.2391 19.4907 31.3561 19.4994 31.4731 19.4994C33.3906 19.4994 35.2214 17.389 35.6548 14.5875Z" stroke="#B88A30" stroke-width="2.5" stroke-linecap="round" stroke-linejoin="round"/>
<path d="M12.3284 27.9884C14.0964 27.2257 14.6121 24.2639 13.4898 21.3757C12.5451 18.9404 10.7359 17.3327 9.13694 17.3327C8.83361 17.3327 8.53677 17.3912 8.25511 17.5104C6.48711 18.273 5.97144 21.2349 7.09377 24.123C8.03844 26.5584 9.84761 28.166 11.4466 28.166C11.7499 28.166 12.0468 28.1075 12.3284 27.9884Z" stroke="#B88A30" stroke-width="2.5" stroke-linecap="round" stroke-linejoin="round"/>
</svg>
