<svg width="183" height="243" viewBox="0 0 183 243" fill="none" xmlns="http://www.w3.org/2000/svg">
<path d="M61.549 110.562C61.5869 111.31 61.6391 111.991 61.7065 112.703C62.9343 126.09 69.1295 138.535 79.0756 147.597C89.0212 156.658 102 161.682 115.466 161.682C128.931 161.682 141.91 156.658 151.856 147.597C161.802 138.535 167.997 126.09 169.225 112.703C169.292 111.991 169.345 111.281 169.383 110.562C169.427 109.641 169.45 108.721 169.45 107.792V104.177C164.304 107.139 158.324 108.324 152.436 107.548C146.547 106.773 141.08 104.08 136.88 99.887C132.68 95.6945 129.983 90.2353 129.206 84.3567C128.429 78.478 129.616 72.5078 132.583 67.3711H33.1325L18.077 202.108H108.718V174.824C107.691 174.719 106.671 174.592 105.659 174.449H105.486C104.512 174.307 103.544 174.143 102.577 173.955L102.314 173.903C101.378 173.716 100.44 173.506 99.5103 173.282L99.2105 173.207C98.286 172.982 97.3712 172.733 96.4664 172.458L96.174 172.376C95.2666 172.099 94.3593 171.815 93.4672 171.5L93.2275 171.418C92.3128 171.103 91.4128 170.767 90.5129 170.407L90.378 170.348C87.5866 169.232 84.874 167.928 82.2579 166.448L82.1156 166.365C81.2984 165.894 80.4811 165.407 79.6866 164.868L79.4537 164.726C78.7039 164.232 77.9019 163.723 77.1448 163.229L76.8745 163.042C76.1247 162.518 75.3749 161.979 74.6626 161.425L74.4002 161.223C73.6504 160.669 72.9607 160.1 72.2562 159.508L72.0238 159.314C71.3188 158.715 70.6138 158.109 69.9315 157.48L69.7666 157.33C69.0621 156.679 68.3724 156.02 67.6974 155.339L67.6447 155.294C66.9402 154.591 66.2579 153.865 65.5829 153.131C64.9306 152.383 64.2936 151.686 63.6787 150.945L63.5438 150.788C62.9486 150.074 62.3716 149.349 61.8114 148.61L61.6164 148.355C61.0695 147.607 60.5447 146.903 60.0272 146.162L59.8096 145.848C59.2996 145.099 58.8048 144.351 58.3101 143.602L58.0925 143.265C57.6228 142.502 57.1655 141.731 56.7204 140.952L56.5333 140.623C56.0908 139.829 55.656 139.028 55.2435 138.213L55.1086 137.936C54.6813 137.098 54.2761 136.251 53.8862 135.391L53.8187 135.234C53.4141 134.343 53.0315 133.445 52.6717 132.531C52.3118 131.628 51.9746 130.715 51.6595 129.792C51.6595 129.717 51.5994 129.642 51.5773 129.567C51.277 128.684 50.9924 127.786 50.7221 126.887C50.7221 126.775 50.6547 126.663 50.6247 126.543C50.3701 125.667 50.1299 124.777 49.8749 123.886C49.8749 123.751 49.8074 123.609 49.7779 123.474C49.5628 122.591 49.3678 121.7 49.193 120.802C49.193 120.652 49.133 120.51 49.1103 120.36C48.938 119.462 48.7879 118.556 48.653 117.643C48.653 117.501 48.6082 117.359 48.5929 117.224C48.4654 116.296 48.3458 115.36 48.2557 114.424C48.2557 114.304 48.2557 114.185 48.2557 114.065C48.1656 113.099 48.0907 112.126 48.0455 111.153C48.0455 111.071 48.0455 110.996 48.0455 110.914C48.0007 109.896 47.9706 108.863 47.9706 107.829H61.4668C61.4815 108.721 61.4815 109.663 61.549 110.562ZM59.2996 94.4308C58.8511 94.7227 58.377 94.9733 57.8827 95.1791C57.3835 95.3814 56.8661 95.5365 56.3384 95.6433C55.275 95.8629 54.1776 95.8629 53.1143 95.6433C52.586 95.5365 52.0691 95.3814 51.5694 95.1791C50.5676 94.7685 49.6578 94.163 48.8927 93.3979C48.5102 93.0159 48.1661 92.5969 47.8658 92.1475C47.5748 91.6965 47.3242 91.2204 47.116 90.7257C46.9136 90.227 46.7581 89.7105 46.6512 89.1833C46.4312 88.1219 46.4312 87.0265 46.6512 85.9646C46.7581 85.4373 46.9136 84.9214 47.116 84.4227C47.3242 83.9279 47.5748 83.4518 47.8658 83.0004C48.4624 82.1132 49.2265 81.3507 50.1151 80.755C50.5671 80.4645 51.0441 80.2139 51.5399 80.0062C52.04 79.8053 52.557 79.6478 53.0842 79.535C54.1486 79.3253 55.244 79.3253 56.3083 79.535C56.8356 79.6478 57.3525 79.8053 57.8527 80.0062C58.3485 80.2139 58.825 80.4645 59.2775 80.755C60.1661 81.3507 60.9301 82.1132 61.5268 83.0004C61.8178 83.4518 62.0683 83.9279 62.2766 84.4227C62.4789 84.9214 62.6345 85.4373 62.7413 85.9646C62.9614 87.0265 62.9614 88.1219 62.7413 89.1833C62.4199 90.7774 61.6381 92.2425 60.492 93.3979C60.1287 93.7765 59.7323 94.1221 59.3075 94.4308H59.2996Z" fill="white"/>
<path d="M16.5713 215.582L13.5721 242.529H96.7977C100.824 242.529 104.805 242.327 108.734 241.99V215.582H16.5713Z" fill="white"/>
<path d="M62.3529 90.7327C62.5552 90.234 62.7108 89.7176 62.8176 89.1903C63.0377 88.1289 63.0377 87.0335 62.8176 85.9716C62.7108 85.4443 62.5552 84.9284 62.3529 84.4297C62.1447 83.9349 61.8941 83.4589 61.6031 83.0074C61.0064 82.1203 60.2424 81.3577 59.3538 80.762C58.9013 80.4715 58.4248 80.221 57.929 80.0137C57.4288 79.8123 56.9119 79.6548 56.3847 79.5421C55.3203 79.3323 54.2249 79.3323 53.1605 79.5421C52.6333 79.6548 52.1163 79.8123 51.6162 80.0137C51.1204 80.221 50.6434 80.4715 50.1914 80.762C49.3028 81.3577 48.5387 82.1203 47.9421 83.0074C47.6511 83.4589 47.4005 83.9349 47.1923 84.4297C46.9899 84.9284 46.8344 85.4443 46.7275 85.9716C46.5075 87.0335 46.5075 88.1289 46.7275 89.1903C46.8344 89.7176 46.9899 90.234 47.1923 90.7327C47.4005 91.2275 47.6511 91.703 47.9421 92.1545C48.2424 92.604 48.5865 93.0229 48.969 93.405C49.7341 94.17 50.6443 94.7755 51.6462 95.1861C52.1454 95.3885 52.6623 95.5435 53.1906 95.6504C54.2539 95.8699 55.3513 95.8699 56.4147 95.6504C56.9429 95.5435 57.4599 95.3885 57.9591 95.1861C58.9584 94.7706 59.8672 94.1656 60.6357 93.405C61.3959 92.636 62.0019 91.7287 62.4203 90.7327H62.3529Z" fill="#191919"/>
<path d="M182.946 107.79V80.8422C182.946 73.6954 180.102 66.841 175.04 61.7874C169.978 56.7339 163.113 53.8947 155.954 53.8947H61.4819V40.4213H81.7261V26.9473H54.7339C52.9443 26.9473 51.2277 27.6572 49.9624 28.9206C48.6967 30.1839 47.9858 31.8975 47.9858 33.6842V53.8947H34.6398L37.3313 29.7918C38.3661 20.3378 45.6917 13.4737 54.7413 13.4737H61.4893V0H54.7413C38.6812 0 25.7173 11.9167 23.9179 28.3097L0 242.526H13.5785L16.5776 215.579H108.718V241.987C113.282 241.593 117.78 240.98 122.214 240.146V174.821C138.851 173.132 154.27 165.343 165.487 152.961C176.706 140.579 182.926 124.485 182.946 107.79ZM48.0606 110.873C48.0606 110.956 48.0606 111.031 48.0606 111.113C48.1059 112.086 48.1808 113.059 48.2709 114.025C48.2709 114.144 48.2709 114.264 48.2709 114.384C48.361 115.32 48.4806 116.255 48.6081 117.184C48.6081 117.318 48.6455 117.461 48.6682 117.603C48.8031 118.516 48.9532 119.422 49.1255 120.32C49.1255 120.47 49.1782 120.612 49.2082 120.761C49.383 121.66 49.5779 122.55 49.7926 123.434C49.7926 123.569 49.8526 123.711 49.8901 123.846C50.1077 124.736 50.3474 125.627 50.6398 126.503C50.6398 126.623 50.7078 126.735 50.7373 126.847C51.0076 127.745 51.2922 128.644 51.5925 129.527C51.5925 129.602 51.6446 129.677 51.6747 129.751C51.9898 130.675 52.327 131.588 52.6869 132.491C53.0467 133.404 53.4367 134.303 53.8339 135.193L53.9014 135.351C54.2913 136.212 54.6965 137.057 55.1238 137.896L55.2587 138.172C55.6712 138.989 56.1059 139.79 56.5485 140.583L56.7356 140.912C57.1757 141.691 57.6331 142.462 58.1077 143.225L58.3253 143.562C58.7979 144.311 59.2927 145.059 59.8248 145.808L60.0424 146.122C60.5598 146.87 61.0847 147.619 61.6316 148.315L61.8266 148.57C62.3917 149.313 62.9687 150.039 63.5585 150.748L63.6939 150.905C64.3088 151.654 64.9458 152.403 65.5981 153.091C66.2731 153.84 66.9554 154.551 67.6599 155.255L67.7126 155.299C68.3875 155.98 69.0773 156.639 69.7818 157.29L69.9467 157.44C70.629 158.069 71.334 158.675 72.0385 159.274L72.2714 159.469C72.9759 160.06 73.6882 160.629 74.4154 161.183L74.6778 161.385C75.4275 161.939 76.1399 162.478 76.8897 163.001L77.16 163.189C77.9098 163.713 78.659 164.222 79.4689 164.686L79.7013 164.828C80.4963 165.33 81.3136 165.816 82.1308 166.325L82.2731 166.407C84.8848 167.883 87.5925 169.18 90.3784 170.293L90.5133 170.352C91.4133 170.711 92.3127 171.048 93.2274 171.363L93.4677 171.445C94.3597 171.76 95.2671 172.044 96.1739 172.321L96.4663 172.403C97.3712 172.673 98.2859 172.922 99.2109 173.152L99.5107 173.227C100.44 173.451 101.378 173.661 102.315 173.848L102.577 173.9C103.544 174.088 104.512 174.252 105.486 174.394H105.659C106.671 174.537 107.691 174.664 108.718 174.769V202.105H18.0771L33.1329 67.3682H132.583C129.616 72.505 128.429 78.4757 129.206 84.3543C129.983 90.233 132.68 95.6917 136.88 99.8847C141.08 104.078 146.548 106.77 152.436 107.546C158.324 108.321 164.305 107.136 169.45 104.174V107.79C169.45 108.718 169.45 109.638 169.383 110.559C169.345 111.308 169.292 111.989 169.225 112.7C167.997 126.087 161.802 138.532 151.856 147.594C141.91 156.656 128.931 161.68 115.466 161.68C102.001 161.68 89.0216 156.656 79.0755 147.594C69.1294 138.532 62.9347 126.087 61.7069 112.7C61.6395 111.989 61.5868 111.278 61.5494 110.559C61.5046 109.638 61.4819 108.718 61.4819 107.79H47.9858C47.9858 108.823 47.9858 109.855 48.0606 110.873Z" fill="#191919"/>
</svg>
